<svg height="542" viewBox="0 0 1718.74 372.31" width="2500" xmlns="http://www.w3.org/2000/svg"><path d="m13.74 288.1c8.52-22.47 16.19-42.71 25.1-66.21 11.2 16.28 21.62 29.74 30.02 44.35 4.57 7.95-8.45 20.67-18.38 21.67-2.13.21-4.3.18-6.46.18-9.02.02-18.03 0-30.28 0zm262.32.13v-288h46.32v288zm-199.52-161.41 44.43-126.59h50.4l76.68 288h-32.49c-9.32-3.82-15.32-10.44-17.93-19.37-14.18-48.57-57.14-192.46-57.14-192.46l-35.07 94.49-28.89-44.07z" fill="#fd2751"/><path d="m0 130.12h59.68l38.91 57.47c43.66-49.62 100.17-63.65 165.6-52.94-63.38 19.43-123.28 56.61-177.82 120.36z" fill="#fcc836"/><g fill="#fd2751"><path d="m370.93 288.92v-200.1h46.32v200.1z"/><ellipse cx="394.09" cy="29.04" rx="29.27" ry="28.59"/><path d="m466.88 0h163.09v40.21h-118.84v72.78h118.84v39.6l-118.84-.01v94.58l133.27.09-29.99 41.14-147.53.07zm179.34 88.28h52.29l42.5 61.76 42.8-61.76h54.12l-69.48 100.89 69.48 100.28-55.34-1.07-41.12-58.55-41.74 58.55h-54.72l69.9-99.51zm320.6-5.12c-24.06 0-43.51 10.76-59.64 28.39v-23.27h-47.64v284.03h47.64v-106.7c16.23 18.37 34.4 22.77 59.38 22.77 49.66 0 93.57-43.07 93.57-101.01s-43.64-104.22-93.3-104.22zm-6.75 164.87c-30.83 0-55.65-26.69-55.65-62.04s24.99-63.16 55.81-63.16 57.92 28.23 57.92 63.58-27.26 61.62-58.08 61.62zm161.12-68.18c0-29.4 26.45-61.53 66.65-57.42 4.93-8.77 17.28-23.73 29.81-30.5-37.52-12.84-65.84-8.36-96.48 16.98l.02-20.65h-45.02l.01 199.96h45.01zm206.27 55.81c-10.35 9.17-23.97 14.75-38.89 14.75-26.1 0-49.58-19.1-57.21-42.65h152.86c2.34-76.89-40.94-118.24-95.65-118.24s-99.06 44.79-99.06 100.05 44.35 100.05 99.06 100.05c38.25 0 71.43-21.9 87.94-53.96zm-40.27-104.79c26.1 0 48.2 17.03 55.84 40.59h-111.68c7.64-23.55 29.74-40.59 55.84-40.59zm220.51 11.18h40.36c0-64.99-150.42-78.06-150.43 9.02 0 65.76 113.05 42.5 112.51 75.52-.48 29.55-64.24 26.12-73.53 7.18h-41.27c15.59 79.03 156.84 67.08 156.84-4.13 0-78.9-112.82-40.43-114.34-80.87-1.23-32.52 59.2-30.1 69.86-6.73zm166.56 0h40.36c0-64.99-150.42-78.06-150.43 9.02 0 65.76 113.05 42.5 112.51 75.52-.48 29.55-64.24 26.12-73.53 7.18h-41.27c15.59 79.03 156.84 67.08 156.84-4.13 0-78.9-112.82-40.43-114.34-80.87-1.23-32.52 59.2-30.1 69.86-6.73z"/></g></svg>